<?xml version="1.0" encoding="UTF-8"?>
<svg xmlns="http://www.w3.org/2000/svg" viewBox="0 0 96 96">
  <defs>
    <style>
      .cls-1 {
        fill: #798593;
      }

      .cls-2 {
        fill: #a4b6cc;
      }

      .cls-3 {
        fill: #c9d6e7;
      }
    </style>
  </defs>
  <g id="_원" data-name="원">
    <circle class="cls-1" cx="48" cy="48" r="48"/>
  </g>
  <g id="_레이어_1" data-name="레이어 1">
    <g>
      <path class="cls-3" d="M66.32,77.5H28.29V21.47c0-1.64,1.33-2.97,2.97-2.97h41.26c1.64,0,2.97,1.33,2.97,2.97v42.26c0,7.6-1.57,13.77-9.18,13.77Z"/>
      <path class="cls-2" d="M56.7,68.32v-1.14c0-1.64-1.33-2.97-2.97-2.97H16.67c-1.64,0-2.97,1.33-2.97,2.97v1.14c0,4.67,4.23,9.18,11.51,9.18h40.62c.42,0,.82-.04,1.23-.09-6.28,0-10.34-4.82-10.34-9.09Z"/>
      <g>
        <rect class="cls-1" x="33.06" y="24.38" width="37.67" height="4.13" rx="2.07" ry="2.07"/>
        <rect class="cls-1" x="33.06" y="34.58" width="37.67" height="4.13" rx="2.07" ry="2.07"/>
        <rect class="cls-1" x="33.06" y="44.77" width="37.67" height="4.13" rx="2.07" ry="2.07"/>
        <rect class="cls-1" x="33.06" y="54.97" width="37.67" height="4.13" rx="2.07" ry="2.07"/>
      </g>
    </g>
  </g>
</svg>